<svg width="23" height="23" viewBox="0 0 23 23" fill="none" xmlns="http://www.w3.org/2000/svg">
<g clip-path="url(#clip0)">
<path fill-rule="evenodd" clip-rule="evenodd" d="M13.7851 2.18678C14.7912 1.80276 15.891 1.737 16.9358 1.99841C17.7568 2.20384 18.5127 2.60353 19.1418 3.15968C19.8992 2.87855 20.6178 2.50021 21.2793 2.03358L21.8557 2.85074L22.8273 3.08736C22.5016 4.42487 21.8504 5.65822 20.935 6.6793C20.948 6.82696 20.9547 6.97517 20.9552 7.12356L20.9552 7.12686C20.9552 12.9407 18.1552 17.2106 14.1297 19.3532C10.1285 21.4828 5.01724 21.4581 0.464606 18.9289C0.0597949 18.704 -0.137651 18.2306 -0.0126024 17.7847C0.112446 17.3388 0.527272 17.0371 0.989994 17.0555C2.55385 17.1177 4.10224 16.814 5.51536 16.1787C4.12201 15.304 3.11284 14.2703 2.40681 13.1555C1.44749 11.6408 1.08572 10.0367 1.02031 8.59764C0.955096 7.16293 1.18298 5.87173 1.42232 4.94629C1.54259 4.48124 1.66741 4.10223 1.7637 3.83589C1.8119 3.70256 1.85313 3.597 1.88331 3.52249C1.89841 3.48523 1.91076 3.45569 1.91986 3.43429L1.93102 3.40833L1.93376 3.40206C1.94083 3.38582 1.94834 3.36973 1.95632 3.35378L2.85075 3.80099L3.6691 3.22628C4.53438 4.45839 5.69094 5.45737 7.03578 6.13428C8.08941 6.66461 9.23299 6.98433 10.4026 7.07916C10.4064 6.03347 10.7221 5.0119 11.3101 4.1456C11.915 3.25457 12.7789 2.57081 13.7851 2.18678ZM3.26385 5.84251C3.09954 6.58644 2.97308 7.5132 3.01825 8.50683C3.07162 9.68092 3.36314 10.9276 4.09645 12.0854C4.82573 13.2369 6.02997 14.3612 8.00813 15.2404C8.33993 15.3879 8.56573 15.7036 8.59803 16.0653C8.63032 16.4269 8.46404 16.7777 8.16362 16.9816C7.15484 17.6664 6.05484 18.1897 4.90306 18.5404C7.84497 19.2464 10.7811 18.8698 13.19 17.5877C16.5285 15.8107 18.9547 12.2416 18.9552 7.12854C18.9545 6.92629 18.935 6.72456 18.897 6.52591C18.8343 6.19804 18.9394 5.86053 19.177 5.62615C19.3457 5.45977 19.5044 5.28459 19.6526 5.10157C19.4899 5.15879 19.3257 5.21234 19.1603 5.26215C18.7836 5.37556 18.3755 5.25765 18.1174 4.96086C17.6795 4.4574 17.0976 4.10055 16.4503 3.9386C15.803 3.77664 15.1216 3.81738 14.4983 4.05531C13.8749 4.29323 13.3396 4.71687 12.9649 5.26892C12.5901 5.82097 12.394 6.47479 12.4029 7.14196L12.4031 7.15537H12.403V8.10562C12.403 8.6478 11.9709 9.09123 11.4289 9.10528C9.59411 9.15286 7.77604 8.74593 6.13659 7.92074C5.07043 7.38411 4.10134 6.68142 3.26385 5.84251Z" fill="#9EB0BC"/>
</g>
<defs>
<clipPath id="clip0">
<rect width="22.806" height="22.806" fill="white"/>
</clipPath>
</defs>
</svg>
