<svg width="24" height="24" viewBox="0 0 24 24" fill="none" xmlns="http://www.w3.org/2000/svg">
<path fill-rule="evenodd" clip-rule="evenodd" d="M2 12C2 11.4477 2.44772 11 3 11H21C21.5523 11 22 11.4477 22 12C22 12.5523 21.5523 13 21 13H3C2.44772 13 2 12.5523 2 12Z" fill="#113F67"/>
<path fill-rule="evenodd" clip-rule="evenodd" d="M2 6C2 5.44772 2.44772 5 3 5H13C13.5523 5 14 5.44772 14 6C14 6.55228 13.5523 7 13 7H3C2.44772 7 2 6.55228 2 6Z" fill="#113F67"/>
<path fill-rule="evenodd" clip-rule="evenodd" d="M8 18C8 17.4477 8.44772 17 9 17L21 17C21.5523 17 22 17.4477 22 18C22 18.5523 21.5523 19 21 19L9 19C8.44772 19 8 18.5523 8 18Z" fill="#113F67"/>
</svg>
