<svg width="23" height="23" viewBox="0 0 23 23" fill="none" xmlns="http://www.w3.org/2000/svg">
<path fill-rule="evenodd" clip-rule="evenodd" d="M6.65174 2.9005C4.57999 2.9005 2.9005 4.57999 2.9005 6.65174V16.1542C2.9005 18.226 4.57999 19.9055 6.65174 19.9055H16.1542C18.226 19.9055 19.9055 18.226 19.9055 16.1542V6.65174C19.9055 4.57999 18.226 2.9005 16.1542 2.9005H6.65174ZM0.900497 6.65174C0.900497 3.47542 3.47542 0.900497 6.65174 0.900497H16.1542C19.3306 0.900497 21.9055 3.47542 21.9055 6.65174V16.1542C21.9055 19.3306 19.3306 21.9055 16.1542 21.9055H6.65174C3.47542 21.9055 0.900497 19.3306 0.900497 16.1542V6.65174Z" fill="#9EB0BC"/>
<path fill-rule="evenodd" clip-rule="evenodd" d="M11.855 8.59117C11.2722 8.50475 10.677 8.60429 10.154 8.87564C9.6311 9.14699 9.20703 9.57632 8.94215 10.1026C8.67727 10.6288 8.58508 11.2252 8.67868 11.8069C8.77227 12.3885 9.0469 12.9259 9.46349 13.3425C9.88009 13.7591 10.4174 14.0337 10.9991 14.1273C11.5808 14.2209 12.1771 14.1287 12.7034 13.8638C13.2296 13.5989 13.659 13.1749 13.9303 12.6519C14.2017 12.129 14.3012 11.5338 14.2148 10.951C14.1266 10.3565 13.8496 9.8062 13.4247 9.38126C12.9998 8.95632 12.4494 8.67932 11.855 8.59117ZM9.2329 7.10039C10.1292 6.6353 11.1494 6.46468 12.1483 6.6128C13.1672 6.7639 14.1106 7.23869 14.8389 7.96705C15.5673 8.69541 16.0421 9.63872 16.1932 10.6576C16.3413 11.6565 16.1707 12.6767 15.7056 13.5731C15.2405 14.4694 14.5046 15.1963 13.6026 15.6503C12.7006 16.1043 11.6784 16.2623 10.6814 16.1019C9.68436 15.9415 8.76333 15.4707 8.04928 14.7567C7.33523 14.0426 6.86451 13.1216 6.70408 12.1246C6.54365 11.1276 6.70167 10.1054 7.15568 9.20339C7.60969 8.30138 8.33656 7.56549 9.2329 7.10039Z" fill="#9EB0BC"/>
<path fill-rule="evenodd" clip-rule="evenodd" d="M15.6293 6.17662C15.6293 5.62433 16.0771 5.17662 16.6293 5.17662H16.6393C17.1916 5.17662 17.6393 5.62433 17.6393 6.17662C17.6393 6.7289 17.1916 7.17662 16.6393 7.17662H16.6293C16.0771 7.17662 15.6293 6.7289 15.6293 6.17662Z" fill="#9EB0BC"/>
</svg>
