<svg width="23" height="23" viewBox="0 0 23 23" fill="none" xmlns="http://www.w3.org/2000/svg">
<path d="M2.2344 5.57475V6.49365C3.8112 6.49365 4.30002 7.00007 4.30002 7.94085V18.0001C4.30002 19.5769 3.8112 20.5001 2.2344 20.5001L2.2344 21.2392H8.50002V20.5001C6.00002 20.5001 6.0792 19.5985 6.0792 18.0001V14.0969H7.8936L11 19C11.9893 20.2411 12.5123 20.6579 13.5 21C14.5717 21.3612 15.2346 21.2392 16.3096 21.2392V20.3989C15.3376 20.3989 13.8208 19.8608 13 18.5L9.924 13.8161C12.2784 13.3841 13.5 11.6816 13.5 9.50004C13.5 8.05284 12.972 7.19124 12 6.50004C10.92 5.70084 9.924 5.57472 7.9152 5.57472L2.2344 5.57475ZM8.00002 6.50004C9.29602 6.50004 10.032 6.68805 10.6152 7.20645C11.2632 7.76805 11.5656 8.63205 11.5656 9.58245C11.5656 10.6409 11.4576 13.1465 7.5264 13.1465H6.0792V8.50004C6.0792 7.35524 5.98162 6.50004 6.50002 6.50004C7.01842 6.50004 8.00002 6.50004 8.00002 6.50004Z" fill="#9EB0BC"/>
<path d="M21.3999 4.47547V5.94744C21.3999 6.57332 21.2769 7.12579 21.0308 7.60485C20.7847 8.08005 20.4351 8.44901 19.9819 8.71173C19.5327 8.97058 19.0112 9.1 18.4175 9.1C17.8159 9.1 17.2866 8.9783 16.8296 8.73491C16.3765 8.48765 16.0249 8.13994 15.7749 7.69178C15.5249 7.24362 15.3999 6.72399 15.3999 6.13288V3.64677C15.3999 3.02089 15.5229 2.47035 15.769 1.99515C16.0151 1.51995 16.3628 1.15292 16.812 0.89407C17.2651 0.631357 17.7886 0.5 18.3823 0.5C18.8706 0.5 19.3198 0.604313 19.73 0.812938C20.144 1.0177 20.4897 1.30939 20.7671 1.68801C21.0444 2.06662 21.2319 2.50512 21.3296 3.0035H20.0347C19.9644 2.72147 19.8452 2.48001 19.6772 2.27911C19.5093 2.07435 19.312 1.91981 19.0854 1.8155C18.8589 1.70732 18.6245 1.65323 18.3823 1.65323C18.0308 1.65323 17.7222 1.7363 17.4565 1.90243C17.1909 2.06855 16.9858 2.30229 16.8413 2.60364C16.6968 2.90112 16.6245 3.24883 16.6245 3.64677V6.13288C16.6245 6.49605 16.6987 6.81478 16.8472 7.08908C16.9956 7.35952 17.2046 7.57008 17.4741 7.72075C17.7476 7.87143 18.062 7.94677 18.4175 7.94677C18.769 7.94677 19.0776 7.8695 19.3433 7.71496C19.6089 7.55656 19.814 7.32862 19.9585 7.03113C20.103 6.73365 20.1753 6.38014 20.1753 5.97062V5.60553H18.4468V4.47547H21.3999Z" fill="#9EB0BC"/>
</svg>
