<svg width="24" height="24" viewBox="0 0 24 24" fill="none" xmlns="http://www.w3.org/2000/svg">
<path fill-rule="evenodd" clip-rule="evenodd" d="M4 14C4.55228 14 5 14.4477 5 15V22C5 22.5523 4.55228 23 4 23C3.44772 23 3 22.5523 3 22V15C3 14.4477 3.44772 14 4 14Z" fill="#113F67"/>
<path d="M16 17C14.31 17 12.95 16.46 11.63 15.93C10.44 15.45 9.31 15 8 15C5.56 15 4.69 15.72 4.68 15.73C4.38 15.99 3.95 16.06 3.6 15.9C3.24 15.73 3 15.39 3 15V3C3 2.73 3.11 2.48 3.29 2.29C3.51 2.08 4.75 1 8 1C9.69 1 11.05 1.54 12.37 2.07C13.57 2.55 14.69 3 16 3C18.44 3 19.31 2.28 19.32 2.27C19.62 2.01 20.05 1.94 20.4 2.1C20.76 2.27 21 2.61 21 3V15C21 15.27 20.89 15.52 20.71 15.71C20.49 15.92 19.25 17 16 17ZM8 13C9.69 13 11.05 13.54 12.37 14.07C13.57 14.55 14.69 15 16 15C17.63 15 18.56 14.68 19 14.46V4.61C18.28 4.83 17.3 5 16 5C14.31 5 12.95 4.46 11.63 3.93C10.44 3.45 9.31 3 8 3C6.37 3 5.44 3.32 5 3.54V13.39C5.72 13.17 6.7 13 8 13Z" fill="#113F67"/>
</svg>
