<svg width="23" height="23" viewBox="0 0 23 23" fill="none" xmlns="http://www.w3.org/2000/svg">
<g clip-path="url(#clip0)">
<path fill-rule="evenodd" clip-rule="evenodd" d="M11.5 22.5C17.5751 22.5 22.5 17.5751 22.5 11.5C22.5 5.42487 17.5751 0.5 11.5 0.5C5.42487 0.5 0.5 5.42487 0.5 11.5C0.5 17.5751 5.42487 22.5 11.5 22.5ZM7.6985 6.397C8.08427 6.397 8.397 6.08427 8.397 5.6985C8.397 5.31273 8.08427 5 7.6985 5C7.31273 5 7 5.31273 7 5.6985C7 6.08427 7.31273 6.397 7.6985 6.397ZM7 16.7618H8.39203V7.39722H7V16.7618ZM13.123 16.7577C16.241 16.7577 17.9999 14.9844 17.9999 12.0592C17.9999 9.15232 16.241 7.39722 13.2629 7.39722H9.96509V16.7577H13.123ZM11.2043 15.7522V8.40274H13.183C15.5814 8.40274 16.8006 9.79219 16.8006 12.0592C16.8006 14.3445 15.5814 15.7522 13.0431 15.7522H11.2043Z" fill="#9EB0BC"/>
</g>
<defs>
<clipPath id="clip0">
<rect width="22.806" height="22.806" fill="white"/>
</clipPath>
</defs>
</svg>
