<svg width="23" height="23" viewBox="0 0 23 23" fill="none" xmlns="http://www.w3.org/2000/svg">
<path fill-rule="evenodd" clip-rule="evenodd" d="M10.187 2.585C11.2656 1.50643 12.7284 0.900497 14.2537 0.900497H17.1045C17.6568 0.900497 18.1045 1.34821 18.1045 1.9005V5.70149C18.1045 6.25378 17.6568 6.70149 17.1045 6.70149H14.3035V8.50249H17.1045C17.4124 8.50249 17.7032 8.64436 17.8927 8.88707C18.0822 9.12979 18.1493 9.44628 18.0746 9.74502L17.1244 13.546C17.0131 13.9912 16.6131 14.3035 16.1542 14.3035H14.3035V20.9055C14.3035 21.4578 13.8558 21.9055 13.3035 21.9055H9.50249C8.9502 21.9055 8.50249 21.4578 8.50249 20.9055V14.3035H6.65174C6.09946 14.3035 5.65174 13.8558 5.65174 13.3035V9.50249C5.65174 8.9502 6.09946 8.50249 6.65174 8.50249H8.50249V6.65174C8.50249 5.12642 9.10842 3.66357 10.187 2.585ZM14.2537 2.9005C13.2588 2.9005 12.3047 3.29572 11.6012 3.99921C10.8977 4.70271 10.5025 5.65685 10.5025 6.65174V9.50249C10.5025 10.0548 10.0548 10.5025 9.50249 10.5025H7.65174V12.3035H9.50249C10.0548 12.3035 10.5025 12.7512 10.5025 13.3035V19.9055H12.3035V13.3035C12.3035 12.7512 12.7512 12.3035 13.3035 12.3035H15.3735L15.8237 10.5025H13.3035C12.7512 10.5025 12.3035 10.0548 12.3035 9.50249V6.65174C12.3035 6.1345 12.509 5.63845 12.8747 5.27271C13.2404 4.90696 13.7365 4.70149 14.2537 4.70149H16.1045V2.9005H14.2537Z" fill="#9EB0BC"/>
</svg>
