<svg width="24" height="24" viewBox="0 0 24 24" fill="none" xmlns="http://www.w3.org/2000/svg">
<path fill-rule="evenodd" clip-rule="evenodd" d="M2.14917 3.36743C2.14917 2.81515 2.59689 2.36743 3.14917 2.36743H10.1492C10.7015 2.36743 11.1492 2.81515 11.1492 3.36743V10.3674C11.1492 10.9197 10.7015 11.3674 10.1492 11.3674H3.14917C2.59689 11.3674 2.14917 10.9197 2.14917 10.3674V3.36743ZM4.14917 4.36743V9.36743H9.14917V4.36743H4.14917Z" fill="white"/>
<path fill-rule="evenodd" clip-rule="evenodd" d="M13.1492 3.36743C13.1492 2.81515 13.5969 2.36743 14.1492 2.36743H21.1492C21.7015 2.36743 22.1492 2.81515 22.1492 3.36743V10.3674C22.1492 10.9197 21.7015 11.3674 21.1492 11.3674H14.1492C13.5969 11.3674 13.1492 10.9197 13.1492 10.3674V3.36743ZM15.1492 4.36743V9.36743H20.1492V4.36743H15.1492Z" fill="white"/>
<path fill-rule="evenodd" clip-rule="evenodd" d="M13.1492 14.3674C13.1492 13.8151 13.5969 13.3674 14.1492 13.3674H21.1492C21.7015 13.3674 22.1492 13.8151 22.1492 14.3674V21.3674C22.1492 21.9197 21.7015 22.3674 21.1492 22.3674H14.1492C13.5969 22.3674 13.1492 21.9197 13.1492 21.3674V14.3674ZM15.1492 15.3674V20.3674H20.1492V15.3674H15.1492Z" fill="white"/>
<path fill-rule="evenodd" clip-rule="evenodd" d="M2.14917 14.3674C2.14917 13.8151 2.59689 13.3674 3.14917 13.3674H10.1492C10.7015 13.3674 11.1492 13.8151 11.1492 14.3674V21.3674C11.1492 21.9197 10.7015 22.3674 10.1492 22.3674H3.14917C2.59689 22.3674 2.14917 21.9197 2.14917 21.3674V14.3674ZM4.14917 15.3674V20.3674H9.14917V15.3674H4.14917Z" fill="white"/>
</svg>
