<svg width="23" height="23" viewBox="0 0 23 23" fill="none" xmlns="http://www.w3.org/2000/svg">
<g clip-path="url(#clip0)">
<path fill-rule="evenodd" clip-rule="evenodd" d="M11.4028 2.80099C11.4029 2.80099 11.403 2.80099 11.403 3.80099L11.403 4.80099L11.3314 4.8011C11.2839 4.8012 11.2137 4.80141 11.1236 4.80184C10.9433 4.80268 10.6836 4.80438 10.3666 4.80777C9.73229 4.81455 8.87067 4.82812 7.95953 4.85519C7.04679 4.88232 6.09237 4.92277 5.27001 4.98275C4.42615 5.0443 3.80369 5.12142 3.49622 5.2023C3.22093 5.28148 2.97111 5.43132 2.77161 5.63699C2.57737 5.83723 2.43748 6.08355 2.36493 6.35259C2.08108 7.93929 1.94227 9.54856 1.95024 11.1605L1.95029 11.1717C1.94013 12.7899 2.07783 14.4056 2.36178 15.9986C2.44184 16.2535 2.58299 16.4853 2.77321 16.6735C2.97322 16.8715 3.22074 17.0147 3.49199 17.0894C3.79796 17.1707 4.42226 17.2482 5.27001 17.3101C6.09237 17.3701 7.04679 17.4105 7.95953 17.4376C8.87067 17.4647 9.73229 17.4783 10.3666 17.4851C10.6836 17.4885 10.9433 17.4902 11.1236 17.491C11.2137 17.4914 11.2839 17.4916 11.3314 17.4917H11.4746C11.5221 17.4916 11.5923 17.4914 11.6824 17.491C11.8626 17.4902 12.1224 17.4885 12.4393 17.4851C13.0737 17.4783 13.9353 17.4647 14.8464 17.4376C15.7592 17.4105 16.7136 17.3701 17.536 17.3101C18.3804 17.2485 19.0031 17.1713 19.3104 17.0904C19.5854 17.0111 19.835 16.8614 20.0344 16.6558C20.2286 16.4556 20.3685 16.2093 20.441 15.9403C20.7227 14.3656 20.8615 12.7687 20.8557 11.169L20.8557 11.1591C20.8659 9.53498 20.7271 7.91334 20.441 6.31459C20.3685 6.04555 20.2286 5.79923 20.0344 5.59898C19.8373 5.39586 19.5912 5.24719 19.32 5.16727C19.0012 5.09249 18.3763 5.0227 17.5423 4.96716C16.7181 4.91227 15.7623 4.8753 14.849 4.85052C13.9372 4.82577 13.075 4.81338 12.4403 4.80718C12.1231 4.80409 11.8632 4.80254 11.6828 4.80177L11.4748 4.80109L11.403 4.80099L11.403 3.80099C11.403 2.80099 11.4029 2.80099 11.4028 2.80099L11.4788 2.80109L11.6914 2.80178C11.8749 2.80257 12.1385 2.80414 12.4598 2.80728C13.102 2.81355 13.9764 2.8261 14.9033 2.85125C15.8287 2.87636 16.8138 2.91421 17.6752 2.97158C18.5107 3.02722 19.308 3.10549 19.8123 3.22864C19.8241 3.23151 19.8357 3.23458 19.8474 3.23787C20.464 3.41233 21.0237 3.74645 21.4699 4.20646C21.9162 4.66647 22.2331 5.23609 22.3887 5.85779L21.4186 6.1006L22.4027 5.92308C22.7148 7.65331 22.8665 9.40865 22.8557 11.1668C22.8617 12.8986 22.71 14.6273 22.4027 16.3317C22.3988 16.3536 22.3941 16.3754 22.3887 16.397C22.2331 17.0187 21.9162 17.5884 21.4699 18.0484C21.0237 18.5084 20.464 18.8425 19.8474 19.017L19.8335 19.0208C19.3212 19.1578 18.5166 19.2439 17.6814 19.3048C16.8183 19.3677 15.8318 19.4092 14.9058 19.4368C13.9783 19.4643 13.1033 19.4781 12.4607 19.485C12.1393 19.4884 11.8755 19.4901 11.6918 19.491C11.5999 19.4914 11.5281 19.4916 11.479 19.4917L11.4034 19.4918L11.327 19.4917C11.2779 19.4916 11.206 19.4914 11.1142 19.491C10.9305 19.4901 10.6667 19.4884 10.3452 19.485C9.70268 19.4781 8.82772 19.4643 7.90012 19.4368C6.97413 19.4092 5.98767 19.3677 5.12452 19.3048C4.28934 19.2439 3.48474 19.1578 2.97249 19.0208L2.96693 19.0193C2.3628 18.854 1.81152 18.5357 1.36635 18.0951C0.921173 17.6545 0.597157 17.1065 0.425606 16.5041C0.416567 16.4724 0.409105 16.4402 0.403246 16.4078C0.0911898 14.6778 -0.060457 12.9226 -0.0497647 11.1648C-0.058043 9.42002 0.0935917 7.6782 0.403239 5.96113C0.407193 5.93921 0.41188 5.91742 0.41729 5.8958C0.572898 5.27411 0.889814 4.70448 1.33603 4.24447C1.78224 3.78446 2.34195 3.45034 2.95861 3.27588L2.97249 3.27206C3.48474 3.13506 4.28934 3.04897 5.12452 2.98805C5.98767 2.9251 6.97413 2.88359 7.90012 2.85608C8.82772 2.82851 9.70268 2.81476 10.3452 2.80788C10.6667 2.80444 10.9305 2.80272 11.1142 2.80186C11.206 2.80143 11.2779 2.80121 11.327 2.8011L11.4028 2.80099Z" fill="#9EB0BC"/>
<path fill-rule="evenodd" clip-rule="evenodd" d="M8.7621 7.19372C9.06992 7.01466 9.44972 7.01281 9.75927 7.18884L15.2232 10.2962C15.5358 10.4739 15.7289 10.8058 15.7289 11.1654C15.7289 11.525 15.5358 11.8569 15.2232 12.0347L9.75927 15.142C9.44972 15.318 9.06992 15.3162 8.7621 15.1371C8.45429 14.9581 8.26492 14.6288 8.26492 14.2727V8.05811C8.26492 7.70201 8.45429 7.37277 8.7621 7.19372ZM10.2649 9.7772V12.5536L12.706 11.1654L10.2649 9.7772Z" fill="#9EB0BC"/>
</g>
<defs>
<clipPath id="clip0">
<rect width="22.806" height="22.806" fill="white"/>
</clipPath>
</defs>
</svg>
