<svg width="24" height="24" viewBox="0 0 24 24" fill="none" xmlns="http://www.w3.org/2000/svg">
<path fill-rule="evenodd" clip-rule="evenodd" d="M21.7071 1.29292C22.006 1.59175 22.0847 2.04618 21.9038 2.42811L12.9038 21.4281C12.7229 21.8098 12.3218 22.0368 11.9015 21.9952C11.4812 21.9535 11.1323 21.6523 11.0299 21.2426L9.1754 13.8246L1.75749 11.9702C1.34773 11.8677 1.04651 11.5189 1.00489 11.0986C0.963272 10.6782 1.19022 10.2771 1.57194 10.0963L20.5719 1.09629C20.9539 0.915375 21.4083 0.994089 21.7071 1.29292ZM4.95337 10.7076L10.2426 12.0299C10.6008 12.1195 10.8806 12.3992 10.9702 12.7575L12.2925 18.0467L18.8976 4.10241L4.95337 10.7076Z" fill="#113F67"/>
</svg>
