<svg width="23" height="23" viewBox="0 0 23 23" fill="none" xmlns="http://www.w3.org/2000/svg">
<g clip-path="url(#clip0)">
<path fill-rule="evenodd" clip-rule="evenodd" d="M15.7327 8.54663C14.4066 8.54663 13.1348 9.07342 12.1971 10.0111C11.2595 10.9488 10.7327 12.2205 10.7327 13.5466V19.5466H12.7327V13.5466C12.7327 12.751 13.0487 11.9879 13.6113 11.4253C14.174 10.8627 14.937 10.5466 15.7327 10.5466C16.5283 10.5466 17.2914 10.8627 17.854 11.4253C18.4166 11.9879 18.7327 12.751 18.7327 13.5466V19.5466H20.7327V13.5466C20.7327 12.2205 20.2059 10.9488 19.2682 10.0111C18.3305 9.07342 17.0587 8.54663 15.7327 8.54663ZM15.7327 6.54663C13.8762 6.54663 12.0957 7.28413 10.7829 8.59688C9.47016 9.90964 8.73267 11.6901 8.73267 13.5466V20.5466C8.73267 21.0989 9.18038 21.5466 9.73267 21.5466H13.7327C14.285 21.5466 14.7327 21.0989 14.7327 20.5466V13.5466C14.7327 13.2814 14.838 13.0271 15.0256 12.8395C15.2131 12.652 15.4675 12.5466 15.7327 12.5466C15.9979 12.5466 16.2522 12.652 16.4398 12.8395C16.6273 13.0271 16.7327 13.2814 16.7327 13.5466V20.5466C16.7327 21.0989 17.1804 21.5466 17.7327 21.5466H21.7327C22.285 21.5466 22.7327 21.0989 22.7327 20.5466V13.5466C22.7327 11.6901 21.9952 9.90964 20.6824 8.59688C19.3697 7.28413 17.5892 6.54663 15.7327 6.54663Z" fill="#9EB0BC"/>
<path fill-rule="evenodd" clip-rule="evenodd" d="M0.732666 8.54663C0.732666 7.99435 1.18038 7.54663 1.73267 7.54663H5.73267C6.28495 7.54663 6.73267 7.99435 6.73267 8.54663V20.5466C6.73267 21.0989 6.28495 21.5466 5.73267 21.5466H1.73267C1.18038 21.5466 0.732666 21.0989 0.732666 20.5466V8.54663ZM2.73267 9.54663V19.5466H4.73267V9.54663H2.73267Z" fill="#9EB0BC"/>
<path fill-rule="evenodd" clip-rule="evenodd" d="M3.73267 2.54663C3.18038 2.54663 2.73267 2.99435 2.73267 3.54663C2.73267 4.09892 3.18038 4.54663 3.73267 4.54663C4.28495 4.54663 4.73267 4.09892 4.73267 3.54663C4.73267 2.99435 4.28495 2.54663 3.73267 2.54663ZM0.732666 3.54663C0.732666 1.88978 2.07581 0.546631 3.73267 0.546631C5.38952 0.546631 6.73267 1.88978 6.73267 3.54663C6.73267 5.20349 5.38952 6.54663 3.73267 6.54663C2.07581 6.54663 0.732666 5.20349 0.732666 3.54663Z" fill="#9EB0BC"/>
</g>
<defs>
<clipPath id="clip0">
<rect width="22.806" height="22.806" fill="white"/>
</clipPath>
</defs>
</svg>
